<svg width="120" height="120" viewBox="0 0 120 120" fill="none" xmlns="http://www.w3.org/2000/svg">
  <circle cx="60" cy="60" r="60" fill="white" />
  <path d="M104.75 69.8501V73.8282C104.75 81.0376 96.7969 88.4938 87.1 88.4938H34.9C25.0812 88.4938 17.25 81.1595 17.25 73.8251V69.8501H104.75Z" fill="#9D5125" />
  <path d="M50.9313 31.1936C55.2406 31.1782 59.4616 32.4159 63.0802 34.7562C66.6988 37.0965 69.5589 40.4383 71.3125 44.3748C73.2153 43.0723 75.4691 42.3791 77.775 42.3873C80.7196 42.3569 83.5577 43.4878 85.6744 45.535C87.7912 47.5822 89.0163 50.3808 89.0844 53.3248C93.1384 53.7931 96.9079 55.6415 99.7604 58.56C102.613 61.4785 104.375 65.2893 104.75 69.3529V70.8436C104.75 78.1779 96.7969 85.5092 86.975 85.5092H34.9C25.0812 85.5092 17.25 78.1748 17.25 70.8436V69.3529C17.4555 65.999 18.6349 62.7778 20.6437 60.084C22.6525 57.3903 25.4034 55.341 28.5594 54.1873V53.5623C28.5474 50.6212 29.1179 47.7068 30.238 44.9873C31.3581 42.2677 33.0055 39.7969 35.0854 37.7174C37.1653 35.6378 39.6363 33.9907 42.356 32.871C45.0757 31.7513 47.9901 31.1812 50.9313 31.1936Z" fill="#F58535" />
  <path d="M39.1248 57.1719L33.2842 77.5562H36.7623L38.1311 72.5844H44.0967L45.3467 77.5562H48.8123L43.3436 57.1719H39.1248ZM38.6279 69.9844L41.1279 59.9156L43.4904 69.9844H38.6279Z" fill="white" />
  <path d="M63.4848 73.2062H63.3629L60.6285 57.1719H57.1473L54.5379 73.0813H54.4129L51.6785 57.1719H48.4473L52.4254 77.6781H56.1535L58.7629 62.2687H58.8879L61.4973 77.6781H65.3504L69.4535 57.1719H66.0973L63.4848 73.2062Z" fill="white" />
  <path d="M80.0154 66.494L77.7779 65.7471C75.5404 64.8784 74.6717 63.8721 74.6717 62.144C74.6302 61.7519 74.6716 61.3554 74.7932 60.9803C74.9149 60.6052 75.114 60.2599 75.3778 59.9668C75.6415 59.6737 75.9639 59.4393 76.3241 59.2788C76.6843 59.1184 77.0742 59.0354 77.4686 59.0354C77.8629 59.0354 78.2528 59.1184 78.613 59.2788C78.9732 59.4393 79.2956 59.6737 79.5593 59.9668C79.8231 60.2599 80.0222 60.6052 80.1439 60.9803C80.2655 61.3554 80.3069 61.7519 80.2654 62.144V62.5159H83.4998V62.019C83.4998 59.9065 83.0029 56.6752 77.6592 56.6752C76.8438 56.5688 76.0149 56.6425 75.231 56.891C74.4471 57.1396 73.7273 57.557 73.1222 58.1138C72.5171 58.6707 72.0414 59.3534 71.7287 60.114C71.416 60.8745 71.2739 61.6944 71.3123 62.5159C71.2418 63.8159 71.643 65.0977 72.4423 66.1254C73.2415 67.1532 74.385 67.8578 75.6623 68.1096L77.8998 68.8565C78.7602 68.9695 79.546 69.4037 80.0995 70.072C80.6531 70.7403 80.9334 71.5932 80.8842 72.4596C80.897 72.8655 80.8245 73.2695 80.6713 73.6456C80.5181 74.0216 80.2876 74.3613 79.9948 74.6427C79.702 74.924 79.3534 75.1407 78.9715 75.2787C78.5896 75.4168 78.183 75.4731 77.7779 75.444C75.5404 75.444 74.4217 74.2013 74.4217 71.7159V71.219H71.1904V71.7159C71.0879 72.5567 71.1782 73.4098 71.4543 74.2106C71.7304 75.0114 72.1852 75.7388 72.7841 76.3378C73.3831 76.9368 74.1105 77.3915 74.9113 77.6676C75.7121 77.9438 76.5652 78.034 77.4061 77.9315C81.5061 77.9315 84.2404 76.1909 84.2404 71.8409C84.2579 70.5998 83.8474 69.3906 83.0779 68.4168C82.3084 67.443 81.2269 66.7639 80.0154 66.494Z" fill="white" />
</svg>