<svg width="120" height="120" viewBox="0 0 120 120" fill="none" xmlns="http://www.w3.org/2000/svg">
<circle cx="60" cy="60" r="60" fill="white"/>
<path d="M75.4531 97.475C75.4531 97.2711 75.5211 97.0672 75.4531 96.8633C75.3172 96.6594 75.2492 96.5234 75.1133 96.3875C74.7734 95.9797 74.4336 95.6398 74.0258 95.232L70.0156 91.1539L73.1422 87.9594L74.8414 86.1242C75.1133 85.8523 75.4531 85.3086 75.4531 84.9008V84.6289C75.4531 84.0172 75.1812 83.6773 74.5695 83.5414L74.7055 83.6094H74.2297C73.8219 83.6094 72.6664 84.6969 72.3945 85.0367C71.375 86.0563 70.6953 87.0078 69.3359 88.0273V79.9391C69.3359 79.1914 68.9281 78.8516 68.1805 78.8516H67.9766C67.2289 78.8516 66.6172 79.1914 66.6172 79.9391V97.543C66.6172 98.2906 67.2289 98.5625 67.9766 98.5625H68.1805C68.9281 98.5625 69.3359 98.2227 69.3359 97.543V94.4164L71.375 96.3875C71.9867 96.9992 72.5984 97.407 73.1422 97.9508C73.4141 98.2227 73.9578 98.5625 74.3656 98.5625H74.5695C75.2492 98.5625 75.4531 98.2227 75.5891 97.6789L75.4531 97.7469V97.475ZM102.029 83.6094H101.757C100.262 83.6094 98.9023 84.0172 97.6789 84.9008C95.6398 86.3961 94.4844 88.3672 94.4844 90.95V97.6109C94.4844 98.3586 94.7562 98.5625 95.5039 98.5625H95.7078C96.4555 98.5625 97.2031 98.2906 97.2031 97.6109V91.3578C97.2031 89.9984 97.475 88.707 98.4945 87.6875C99.3102 86.8719 100.33 86.1922 101.485 86.1922C102.369 86.1922 103.388 85.9883 103.388 84.9008C103.388 84.0852 102.777 83.6094 102.029 83.6094ZM91.5617 87.0078C90.8141 85.7844 89.7945 84.8328 88.5031 84.2211C86.1242 83.0656 83.6094 82.9297 81.2984 84.2891L80.9586 84.493C80.007 85.0367 79.1914 85.7164 78.5797 86.6C76.8125 89.1828 76.6086 92.1055 78.1719 94.8242L78.3078 95.0961C78.9875 96.2516 79.8711 97.2031 81.0266 97.8148C83.4734 99.1742 86.1242 99.3102 88.5711 97.9508L88.775 97.8148C89.4547 97.407 89.5906 96.7273 89.2508 96.0477C89.1148 95.7758 88.843 95.5719 88.5711 95.4359H88.4352C87.9594 95.368 86.668 95.9117 86.1922 96.1156C85.2406 96.2516 84.1531 96.3195 83.2016 95.9797L88.3672 91.4938C89.1148 90.8141 89.9305 90.0664 90.7461 89.4547C91.4258 88.9109 92.1055 88.1633 91.5617 87.2117V87.0078ZM86.8719 89.4547L81.0945 94.4164C80.8906 94.2125 80.7547 93.9406 80.6187 93.7367C80.2109 93.057 79.9391 92.2414 79.9391 91.4258C79.8711 89.3867 80.6188 87.6875 82.4539 86.668C83.8133 85.8523 85.3086 85.7164 86.8039 86.2602C87.5516 86.532 88.4352 87.0078 88.9109 87.6875C88.2313 88.2992 87.4836 88.843 86.8719 89.4547ZM31.9531 78.8516H31.7492C31.0016 78.8516 30.5938 79.1234 30.5938 79.8711V85.3766C29.2344 84.1531 27.6031 83.6773 25.7 83.6773H25.1562C23.8648 83.6773 22.6414 83.8813 21.4859 84.5609C19.0391 85.9883 17.6797 88.0953 17.6797 90.95V91.4938C17.6797 92.7852 18.0195 93.8727 18.6992 95.0281C20.1266 97.475 22.3695 98.6984 25.1562 98.6984H25.7C26.9914 98.6984 28.3508 98.4945 29.4383 97.8828C31.8852 96.4555 33.3125 94.3484 33.3125 91.5617V80.007C33.3125 79.1234 32.7008 78.8516 31.9531 78.8516ZM29.8461 93.6688C28.8266 95.368 27.3313 96.3195 25.3602 96.3195C24.5445 96.3195 23.7289 96.1156 23.0492 95.7078C21.282 94.7562 20.2625 93.193 20.2625 91.1539C20.2625 90.4062 20.3984 89.7266 20.7383 89.0469C21.6898 87.0758 23.2531 85.9883 25.4281 85.9883C26.5156 85.9883 27.4672 86.3281 28.2828 86.9398C29.7102 87.9594 30.5258 89.3187 30.5258 91.0859C30.5938 92.0375 30.3219 92.8531 29.8461 93.6688ZM42.5562 83.6094H42.1484C40.857 83.6094 39.5656 83.8133 38.4781 84.493C36.0312 85.9203 34.6719 88.0273 34.6719 90.882V91.4258C34.6719 92.7172 35.0117 93.8047 35.6914 94.9602C37.1187 97.407 39.3617 98.6305 42.2164 98.6305H42.7602C44.0516 98.6305 45.343 98.4266 46.4984 97.8148C48.9453 96.3875 50.3727 94.2805 50.3727 91.4938V90.95C50.3727 89.7266 49.9648 88.707 49.4211 87.6875C47.9258 84.9688 45.5469 83.6094 42.5562 83.6094ZM46.9062 93.6688C45.8867 95.3 44.4594 96.3195 42.4883 96.3195C41.6047 96.3195 40.7211 96.1156 39.9055 95.6398C38.2063 94.6203 37.2547 93.193 37.2547 91.2219C37.2547 90.4742 37.3906 89.7945 37.7305 89.1148C38.682 87.1437 40.2453 86.0563 42.4203 86.0563C43.4398 86.0563 44.3234 86.3281 45.1391 86.8719C46.6344 87.8914 47.518 89.3187 47.518 91.1539C47.5859 91.9695 47.382 92.8531 46.9062 93.6688ZM63.5586 84.5609L63.4906 84.6289C62.3352 83.8812 61.0438 83.6094 59.6844 83.6094H59.1406C57.8492 83.6094 56.5578 83.8133 55.4703 84.493C53.0234 85.9203 51.6641 88.0273 51.6641 90.8141V91.3578C51.6641 92.0375 51.8 92.6492 51.9359 93.3289C53.0234 97.0672 55.9461 99.1742 59.8883 98.9023C60.9758 98.8344 63.8984 98.4945 63.8984 96.8633V96.5914C63.8984 95.9797 63.4227 95.4359 62.8789 95.3L62.8109 95.1641H62.3352L62.1992 95.368C61.5875 95.6398 60.568 96.1836 59.8883 96.1836C59.0727 96.1836 58.1891 96.1836 57.4414 95.7758C55.4703 94.8242 54.3148 93.2609 54.3148 91.0859C54.3148 90.3383 54.4508 89.6586 54.7906 88.9789C55.7422 87.0758 57.3055 85.8523 59.4805 85.9203C59.8883 85.9203 60.6359 86.1242 61.0438 86.3281C61.3836 86.4641 62.2672 87.0078 62.675 87.0078H62.8109L62.8789 86.8719C63.4906 86.7359 63.9664 86.2602 63.9664 85.6484V85.3766C63.9664 85.1047 63.8305 84.9008 63.6945 84.6969L63.5586 84.5609ZM20.9422 63.3547L21.0102 63.4906C26.3797 72.5984 35.7594 76.4047 46.0227 76.4047C65.8695 76.4047 82.25 67.5008 89.7266 48.8094C94.7562 49.0812 99.9219 47.5859 102.369 42.7602L102.98 41.5367L101.757 40.857C98.8344 39.1578 94.9602 38.9539 91.6977 39.9055C91.2898 36.3711 88.9789 33.3125 86.2602 31.1375L85.1727 30.2539L84.2891 31.3414C82.4539 33.4484 81.9102 36.9828 82.182 39.7016C82.3859 41.6727 82.9977 43.7117 84.2211 45.343C83.2695 45.8867 82.25 46.6344 81.2984 46.9742C79.3953 47.6539 77.2883 48.3336 75.2492 48.3336H70.6953V38.75H61.8594V21.7578H51.6641V29.9141H34.6719V38.75H25.8359V48.2656H18.2234L18.0875 49.2852C17.7477 53.6352 18.2914 57.8492 20.1266 61.8594L20.9422 63.3547ZM61.8594 40.7891H69.3359V48.2656H61.8594V40.7891ZM53.0234 23.1172H60.5V30.5938H53.0234V23.1172ZM53.0234 31.9531H60.5V39.4297H53.0234V31.9531ZM53.0234 40.7891H60.5V48.2656H53.0234V40.7891ZM44.1875 31.9531H51.6641V39.4297H44.1875V31.9531ZM44.1875 40.7891H51.6641V48.2656H44.1875V40.7891ZM44.9352 61.9953C44.9352 63.1508 43.9836 64.1023 42.8281 64.1023C41.6727 64.1023 40.7211 63.1508 40.7211 61.9953C40.7211 60.8398 41.6727 59.8883 42.8281 59.8883C43.9836 59.9562 44.9352 60.8398 44.9352 61.9953ZM36.0312 31.9531H42.8281V39.4297H36.0312V31.9531ZM36.0312 40.7891H42.8281V48.2656H36.0312V40.7891ZM27.1953 40.7891H34.6719V48.2656H27.1953V40.7891ZM28.8266 66.6172C29.9141 66.6172 31.0016 66.6172 32.0211 66.5492C34.6719 66.4133 36.9828 66.0734 38.8859 65.5297C40.4492 69.132 43.3039 72.4625 48.4016 74.9094L46.0227 74.9773C35.2836 74.9094 29.5062 71.307 24.7484 66.5492C26.1758 66.6172 27.5352 66.6172 28.8266 66.6172ZM42.8281 63.4906C43.6437 63.4906 44.3234 62.8109 44.3234 61.9953C44.3234 61.7914 44.2555 61.5875 44.1875 61.4516C44.0516 61.6555 43.9156 61.7914 43.6438 61.7914C43.3039 61.7914 43.032 61.5195 43.032 61.1797C43.032 60.9758 43.168 60.7719 43.3039 60.6359C43.2359 60.568 43.032 60.5 42.8281 60.5C42.0125 60.5 41.3328 61.1797 41.3328 61.9953C41.4008 62.8109 42.0125 63.4906 42.8281 63.4906Z" fill="#019BC6"/>
</svg>
