<svg width="120" height="120" viewBox="0 0 120 120" fill="none" xmlns="http://www.w3.org/2000/svg">
  <circle cx="60" cy="60" r="60" fill="white" />
  <g clip-path="url(#clip0_889_1636)">
    <path d="M71.3125 46.1187L61.3031 55.4312L52.0156 36.6968L56.8219 25.9218C58.0719 23.7343 60.0219 23.7593 61.2406 25.9218L71.3125 46.1187Z" fill="#FFA000" />
    <path d="M52.0152 36.6968L61.3027 55.4312L23.8965 90.228L52.0152 36.6968Z" fill="#F57F17" />
    <path d="M82.259 31.8843C84.0465 30.1656 85.8965 30.7531 86.3684 33.1874L96.1059 89.7656L63.8309 109.141C62.7059 109.766 59.7059 110.034 59.7059 110.034C59.7059 110.034 56.9746 109.709 55.934 109.097L23.8965 90.2281L82.259 31.8843Z" fill="#FFCA28" />
    <path d="M52.016 36.697L23.9004 90.2283L36.4223 11.9939C36.8848 9.5564 38.2723 9.32203 39.5098 11.472L52.016 36.697Z" fill="#FFA000" />
  </g>
  <defs>
    <clipPath id="clip0_889_1636">
      <rect width="100" height="100" fill="white" transform="translate(10 10)" />
    </clipPath>
  </defs>
</svg>
  