<svg width="120" height="120" viewBox="0 0 120 120" fill="none" xmlns="http://www.w3.org/2000/svg">
<circle cx="60" cy="60" r="60" fill="white"/>
<path d="M102.1 56.1032L63.897 17.9C63.3744 17.3756 62.7535 16.9596 62.0698 16.6757C61.386 16.3917 60.653 16.2456 59.9126 16.2456C59.1723 16.2456 58.4393 16.3917 57.7555 16.6757C57.0718 16.9596 56.4509 17.3756 55.9283 17.9L47.9939 25.8344L58.0564 35.8969C59.243 35.4931 60.5191 35.4307 61.7394 35.7169C62.9598 36.0031 64.0751 36.6263 64.9585 37.5155C65.8419 38.4047 66.4577 39.5242 66.7358 40.7464C67.0139 41.9686 66.943 43.2443 66.5314 44.4282L76.2189 54.1157C77.6669 53.6182 79.2417 53.632 80.6809 54.1547C82.12 54.6773 83.3366 55.6774 84.1279 56.9882C84.9192 58.299 85.2374 59.8413 85.0296 61.3583C84.8218 62.8752 84.1004 64.2751 82.9857 65.3248C81.871 66.3744 80.4303 67.0104 78.9036 67.1267C77.3769 67.2431 75.8564 66.8328 74.5955 65.9642C73.3347 65.0955 72.4095 63.8211 71.9742 62.3532C71.5389 60.8852 71.6197 59.3125 72.2033 57.8969L63.1564 48.85V72.6532C64.5268 73.3322 65.6233 74.4602 66.2631 75.8494C66.9029 77.2386 67.0474 78.805 66.6727 80.2878C66.2979 81.7706 65.4264 83.0803 64.2033 83.9986C62.9803 84.9169 61.4795 85.3885 59.951 85.3348C58.4225 85.281 56.9586 84.7053 55.803 83.7033C54.6475 82.7014 53.8701 81.3338 53.6003 79.8284C53.3305 78.3229 53.5847 76.7705 54.3205 75.4296C55.0562 74.0888 56.2292 73.0405 57.6439 72.4594V48.4375C56.8254 48.1017 56.0815 47.6073 55.455 46.9827C54.8284 46.3582 54.3316 45.6158 53.9932 44.7984C53.6548 43.981 53.4815 43.1048 53.4832 42.2201C53.4849 41.3354 53.6617 40.4599 54.0033 39.6438L44.097 29.7313L17.9001 55.9375C17.3753 56.4602 16.9588 57.0813 16.6746 57.7654C16.3904 58.4494 16.2441 59.1828 16.2441 59.9235C16.2441 60.6642 16.3904 61.3976 16.6746 62.0816C16.9588 62.7656 17.3753 63.3868 17.9001 63.9094L56.1033 102.1C56.6259 102.624 57.2468 103.041 57.9305 103.324C58.6143 103.608 59.3473 103.754 60.0876 103.754C60.828 103.754 61.561 103.608 62.2448 103.324C62.9285 103.041 63.5494 102.624 64.072 102.1L102.1 64.0625C102.625 63.5399 103.041 62.9187 103.326 62.2347C103.61 61.5507 103.756 60.8173 103.756 60.0766C103.756 59.3359 103.61 58.6025 103.326 57.9185C103.041 57.2345 102.625 56.6133 102.1 56.0907" fill="#DD4C35"/>
<path d="M47.9936 25.8345L58.0561 35.897C59.2426 35.4932 60.5188 35.4308 61.7391 35.717C62.9594 36.0031 64.0748 36.6263 64.9582 37.5156C65.8415 38.4048 66.4573 39.5243 66.7354 40.7464C67.0135 41.9686 66.9427 43.2443 66.5311 44.4282L76.2186 54.1157C77.6666 53.6183 79.2414 53.632 80.6805 54.1547C82.1197 54.6774 83.3362 55.6775 84.1275 56.9882C84.9188 58.299 85.2371 59.8414 85.0293 61.3583C84.8214 62.8753 84.1 64.2752 82.9853 65.3248C81.8706 66.3745 80.4299 67.0105 78.9032 67.1268C77.3765 67.2431 75.8561 66.8328 74.5952 65.9642C73.3343 65.0956 72.4091 63.8212 71.9738 62.3532C71.5385 60.8853 71.6194 59.3125 72.2029 57.897L63.1561 48.8501V72.6532C64.5265 73.3322 65.6229 74.4603 66.2627 75.8495C66.9026 77.2386 67.0471 78.8051 66.6723 80.2879C66.2975 81.7707 65.426 83.0803 64.203 83.9987C62.9799 84.917 61.4792 85.3886 59.9507 85.3348C58.4222 85.2811 56.9582 84.7053 55.8027 83.7034C54.6471 82.7015 53.8697 81.3339 53.6 79.8284C53.3302 78.323 53.5844 76.7705 54.3201 75.4297C55.0559 74.0889 56.2288 73.0406 57.6436 72.4595V48.4376C56.8251 48.1018 56.0812 47.6074 55.4546 46.9828C54.8281 46.3582 54.3313 45.6159 53.9929 44.7985C53.6545 43.9811 53.4811 43.1048 53.4829 42.2202C53.4846 41.3355 53.6613 40.4599 54.0029 39.6438L44.0967 29.7313" fill="white"/>
</svg>
