<svg width="120" height="120" viewBox="0 0 120 120" fill="none" xmlns="http://www.w3.org/2000/svg">
  <circle cx="60" cy="60" r="60" fill="white" />
  <g clip-path="url(#clip0_889_1642)">
    <path fill-rule="evenodd" clip-rule="evenodd" d="M60.0544 15.647C35.1731 15.647 15 35.8201 15 60.7088C15 80.6157 27.9094 97.5038 45.8156 103.464C48.0694 103.877 48.8906 102.486 48.8906 101.289C48.8906 100.223 48.8531 97.3876 48.8306 93.6282C36.2962 96.3507 33.6525 87.587 33.6525 87.587C31.6031 82.3839 28.6481 80.9982 28.6481 80.9982C24.5569 78.2007 28.9575 78.257 28.9575 78.257C33.48 78.5776 35.8594 82.9013 35.8594 82.9013C39.8794 89.7863 46.4062 87.797 48.9731 86.6457C49.3838 83.7338 50.5444 81.7482 51.8344 80.6213C41.8294 79.4851 31.3088 75.617 31.3088 58.352C31.3088 53.4338 33.0656 49.4101 35.9475 46.2601C35.4844 45.1201 33.9375 40.5395 36.3881 34.3351C36.3881 34.3351 40.1719 33.1238 48.78 38.9551C52.3744 37.9557 56.2294 37.4551 60.06 37.4382C63.8869 37.4551 67.7419 37.9557 71.3419 38.9551C79.9444 33.1238 83.7206 34.3351 83.7206 34.3351C86.1787 40.5395 84.6319 45.1201 84.1687 46.2601C87.0563 49.4101 88.8019 53.4338 88.8019 58.352C88.8019 75.662 78.2644 79.4701 68.2256 80.5857C69.8456 81.977 71.2856 84.7257 71.2856 88.9313C71.2856 94.9538 71.2313 99.8138 71.2313 101.289C71.2313 102.497 72.0412 103.899 74.3287 103.459C92.22 97.487 105.118 80.6101 105.118 60.7088C105.118 35.8201 84.9431 15.647 60.0544 15.647Z" fill="#010101" />
  </g>
  <defs>
    <clipPath id="clip0_889_1642">
      <rect width="120" height="120" fill="white" />
    </clipPath>
  </defs>
</svg>
  