<svg width="120" height="120" viewBox="0 0 120 120" fill="none" xmlns="http://www.w3.org/2000/svg">
  <circle cx="60" cy="60" r="60" fill="white" />
  <path d="M17.5528 54.6438C17.356 54.6438 17.3091 54.5469 17.406 54.4L18.431 53.0813C18.5278 52.9344 18.756 52.8375 18.9528 52.8375H36.3372C36.5341 52.8375 36.581 52.9844 36.4841 53.1313L35.6528 54.4C35.5716 54.5469 35.3122 54.6938 35.1653 54.6938L17.5528 54.6438ZM10.1966 59.1219C9.9997 59.1219 9.95283 59.025 10.0497 58.8781L11.0747 57.5594C11.1716 57.4281 11.4153 57.3313 11.6122 57.3313H33.8122C34.0091 57.3313 34.106 57.4781 34.056 57.625L33.6653 58.7813C33.6153 58.9781 33.4216 59.075 33.2247 59.075L10.1966 59.1219ZM21.9778 63.5969C21.781 63.5969 21.7341 63.45 21.831 63.3188L22.5153 62.0969C22.6122 61.95 22.8091 61.8031 23.0028 61.8031H32.7372C32.9341 61.8031 33.031 61.95 33.031 62.1438L32.9341 63.3157C32.9341 63.5125 32.7372 63.6563 32.5935 63.6563L21.9778 63.5969ZM72.5153 53.7656C69.456 54.5469 67.356 55.1344 64.3278 55.9156C63.5966 56.1125 63.5622 56.1594 62.9122 55.4281C62.1966 54.5969 61.6591 54.0594 60.6341 53.5719C57.5591 52.075 54.5966 52.4969 51.8278 54.3031C48.506 56.4531 46.8153 59.6094 46.8622 63.5469C46.8935 67.4531 49.581 70.6594 53.4216 71.1969C56.7435 71.6375 59.5091 70.4656 61.706 67.9906C62.1466 67.4531 62.5372 66.8688 63.0247 66.1844H53.6185C52.6091 66.1844 52.3497 65.55 52.6903 64.7188C53.3247 63.2219 54.4966 60.6813 55.181 59.4125C55.3935 58.9406 55.881 58.6313 56.4028 58.6313H74.1278C74.031 59.95 74.031 61.2688 73.8341 62.5875C73.331 66.0531 71.9466 69.325 69.831 72.125C66.331 76.7469 61.7591 79.6281 55.9622 80.3938C51.1935 81.0281 46.7497 80.1 42.8591 77.1875C39.2622 74.4688 37.2122 70.8563 36.6747 66.3813C36.056 61.075 37.6028 56.3063 40.8247 52.1063C44.2747 47.5813 48.8497 44.7156 54.4466 43.6906C59.0216 42.8594 63.4153 43.3969 67.3528 46.0656C69.9403 47.775 71.781 50.1188 72.9997 52.9344C73.2935 53.375 73.0966 53.6188 72.5122 53.7656H72.5153ZM88.6278 80.7031C84.1997 80.5906 80.1653 79.3344 76.7466 76.4063C73.9153 74.0125 72.0435 70.6782 71.4903 67.0156C70.6122 61.5156 72.1247 56.6469 75.4278 52.3031C78.9935 47.6313 83.2716 45.2063 89.0685 44.1813C94.0341 43.3031 98.7028 43.7906 102.953 46.6719C106.793 49.2938 109.187 52.8406 109.806 57.5125C110.637 64.0875 108.747 69.4438 104.206 74.0313C101 77.2875 97.0622 79.3375 92.5185 80.25C91.2153 80.5094 89.8966 80.5438 88.6278 80.7063V80.7031ZM100.218 61.025C100.168 60.3906 100.168 59.9031 100.072 59.4125C99.1935 54.5938 94.7653 51.8781 90.1435 52.9344C85.6185 53.9594 82.6903 56.8406 81.6153 61.4156C80.7528 65.2094 82.5935 69.0656 86.1091 70.6125C88.7778 71.7844 91.4653 71.6375 94.0341 70.3188C97.8903 68.3156 99.9747 65.2094 100.218 61.025Z" fill="#00ACD7" />
</svg>