<svg width="120" height="120" viewBox="0 0 120 120" fill="none" xmlns="http://www.w3.org/2000/svg">
  <circle cx="60" cy="60" r="60" fill="white" />
  <path d="M11.5633 74.6701H14.7727V61.9959L19.7414 73.0451C20.3273 74.3826 21.1297 74.8552 22.7039 74.8552C24.2781 74.8552 25.05 74.3826 25.6359 73.0451L30.6047 61.9959V74.6701H33.8141V62.017C33.8141 60.7826 33.3203 60.1849 32.3016 59.8771C29.8633 59.1162 28.2273 59.7748 27.4867 61.4209L22.6109 72.3256L17.8898 61.4201C17.1797 59.7748 15.5133 59.1162 13.075 59.8763C12.0563 60.1849 11.5625 60.7818 11.5625 62.0162V74.6701H11.5633ZM36.4836 64.3529H39.6922V71.3357C39.6625 71.7146 39.8141 72.6052 41.5719 72.6334C42.4687 72.6474 48.4953 72.6334 48.5516 72.6334V64.3185H51.768C51.7828 64.3185 51.7648 75.6576 51.7648 75.7045C51.782 78.5013 48.2953 79.1084 46.6875 79.1552H36.5531V76.9959C36.5703 76.9959 46.6805 76.9982 46.7055 76.9951C48.7719 76.7771 48.5273 75.7506 48.5266 75.4052V74.5631H41.7055C38.532 74.5341 36.5102 73.149 36.4844 71.5552C36.4828 71.4091 36.5539 64.4232 36.4836 64.3529Z" fill="#00618A" />
  <path d="M54.2422 74.6702H63.4703C64.5508 74.6702 65.6008 74.4444 66.4336 74.0538C67.8219 73.4163 68.5008 72.5522 68.5008 71.4194V69.0741C68.5008 68.1483 67.7297 67.2835 66.2172 66.7085C65.4148 66.3991 64.4266 66.2358 63.4695 66.2358H59.5805C58.2844 66.2358 57.6672 65.8452 57.5133 64.9812C57.4828 64.878 57.4828 64.796 57.4828 64.6929V63.2319C57.4828 63.1499 57.4828 63.0671 57.5133 62.9647C57.6672 62.3061 58.007 62.121 59.1492 62.0179L59.4578 61.9976H68.6242V59.8585H59.6125C58.3164 59.8585 57.6375 59.9405 57.0203 60.1257C55.107 60.7226 54.2727 61.6686 54.2727 63.3147V65.1866C54.2727 66.6272 55.9094 67.8616 58.6555 68.1499C58.9648 68.1694 59.2727 68.1913 59.5813 68.1913H62.9148C63.0383 68.1913 63.1617 68.1913 63.2547 68.2108C64.2734 68.2929 64.7047 68.4788 65.0141 68.8483C65.1992 69.0335 65.2602 69.2194 65.2602 69.4241V71.2968C65.2602 71.5226 65.1062 71.8108 64.7977 72.0577C64.5203 72.3046 64.057 72.4694 63.4398 72.5108L63.1 72.5312H54.2422V74.6702ZM88.5242 70.9468C88.5242 73.1476 90.1602 74.3819 93.4617 74.6296C93.7703 74.6499 94.0789 74.6702 94.3875 74.6702H102.752V72.5312H94.3266C92.4438 72.5312 91.7344 72.0577 91.7344 70.9257V59.8569H88.525V70.9468H88.5242ZM70.5492 71.0577V63.4288C70.5492 61.4913 71.9102 60.3155 74.6008 59.9444C74.8789 59.903 75.1891 59.8827 75.4664 59.8827H81.5594C81.8688 59.8827 82.1469 59.903 82.4555 59.9444C85.1461 60.3155 86.5078 61.4905 86.5078 63.4288V71.0577C86.5078 72.6312 85.9297 73.4718 84.5977 74.0202L87.7602 76.8741H84.0328L81.475 74.5647L78.9 74.728H75.4664C74.8789 74.728 74.2609 74.646 73.5805 74.4601C71.5391 73.9038 70.5492 72.8312 70.5492 71.0577ZM74.0133 70.8726C74.0133 70.9757 74.0437 71.0796 74.075 71.203C74.2602 72.0897 75.0961 72.5843 76.3633 72.5843H79.2789L76.6008 70.1663H80.3281L82.6633 72.2757C83.0945 72.0452 83.3773 71.6952 83.4766 71.2444C83.507 71.1413 83.507 71.0382 83.507 70.9351V63.6163C83.507 63.5343 83.507 63.4304 83.4766 63.3272C83.2906 62.5022 82.4555 62.0288 81.2188 62.0288H76.3625C74.9406 62.0288 74.0125 62.6476 74.0125 63.6163V70.8726H74.0133Z" fill="#E48E00" />
  <path d="M105.575 56.3064C103.602 56.2525 102.095 56.4361 100.806 56.979C100.439 57.1337 99.8558 57.1376 99.7964 57.5962C99.9972 57.8079 100.028 58.1228 100.189 58.3822C100.496 58.8798 101.016 59.547 101.479 59.8962C101.985 60.2782 102.507 60.6876 103.05 61.0189C104.015 61.6079 105.093 61.9439 106.024 62.5329C106.571 62.8814 107.115 63.3189 107.65 63.7118C107.915 63.9048 108.092 64.2072 108.436 64.3282V64.2728C108.256 64.0431 108.209 63.7275 108.043 63.4868L107.314 62.7572C106.6 61.8103 105.696 60.9798 104.732 60.2892C103.965 59.7384 102.248 58.9939 101.928 58.1009L101.871 58.0454C102.415 57.9837 103.053 57.7868 103.554 57.6525C104.398 57.4259 105.152 57.4845 106.023 57.2595L107.201 56.922V56.6986C106.761 56.247 106.446 55.6486 105.967 55.24C104.711 54.1704 103.339 53.1017 101.928 52.2095C101.145 51.7157 100.177 51.3947 99.3464 50.9759C99.0683 50.8345 98.5777 50.7618 98.3925 50.5267C97.9558 49.9712 97.7191 49.2673 97.3824 48.6196C96.6793 47.2642 95.9871 45.7829 95.3628 44.3556C94.9378 43.3829 94.6597 42.4236 94.1292 41.5509C91.5816 37.3626 88.8394 34.8345 84.5917 32.3501C83.6878 31.8212 82.5996 31.6134 81.4503 31.3407L79.5988 31.2282C79.223 31.0712 78.8308 30.6103 78.4769 30.3868C77.0691 29.4978 73.4597 27.5642 72.4175 30.1072C71.7597 31.7118 73.4019 33.2775 73.9886 34.0907C74.4003 34.6611 74.9285 35.3001 75.223 35.9415C75.4167 36.3634 75.4496 36.7861 75.616 37.2322C76.023 38.3306 76.3785 39.5267 76.9058 40.5415C77.1722 41.0556 77.4668 41.597 77.8035 42.0564C78.0097 42.3376 78.3644 42.4626 78.4199 42.8978C78.0738 43.3822 78.0535 44.1353 77.8589 44.7486C76.9824 47.5134 77.3128 50.9501 78.5886 52.9962C78.98 53.6251 79.9019 54.972 81.1691 54.4548C82.2777 54.0032 82.0308 52.604 82.348 51.3689C82.4199 51.09 82.3753 50.8837 82.516 50.6962V50.7525L83.5261 52.772C84.2738 53.9759 85.5996 55.2329 86.7238 56.0822C87.3066 56.522 87.766 57.2837 88.5191 57.5407V57.4837H88.4636C88.3167 57.2564 88.0894 57.1626 87.9019 56.979C87.4628 56.5486 86.9746 56.0142 86.6121 55.5204C85.5894 54.1329 84.6863 52.6134 83.8628 51.0322C83.4699 50.2775 83.1285 49.4447 82.7972 48.6759C82.6691 48.3798 82.6707 47.9314 82.405 47.779C82.041 48.3415 81.5074 48.797 81.2261 49.4618C80.7777 50.5243 80.7199 51.8204 80.5535 53.1642L80.441 53.2197C79.6589 53.0314 79.3847 52.2267 79.0941 51.5368C78.3597 49.7923 78.223 46.9822 78.8699 44.9736C79.0371 44.4532 79.7925 42.8165 79.4863 42.3361C79.3402 41.8572 78.8582 41.5806 78.5894 41.2134C78.2558 40.7611 77.9222 40.1657 77.6918 39.6423C77.0902 38.2822 76.8097 36.7548 76.1777 35.379C75.8746 34.7212 75.3636 34.0564 74.9433 33.472C74.4785 32.8236 73.9574 32.347 73.5964 31.5642C73.4683 31.2861 73.2941 30.84 73.4839 30.554C73.5441 30.3611 73.6308 30.2806 73.8214 30.2173C74.1464 29.9665 75.0527 30.3009 75.3918 30.4415C76.2918 30.8157 77.0425 31.1712 77.805 31.6759C78.1707 31.9189 78.5402 32.3876 78.9832 32.5173H79.4878C80.2777 32.6986 81.1628 32.5728 81.9003 32.797C83.205 33.1939 84.3738 33.8103 85.4347 34.4806C88.6683 36.5228 91.3113 39.429 93.1207 42.8962C93.4113 43.4548 93.5378 43.9868 93.7933 44.579C94.3105 45.7728 94.9621 47.0017 95.4761 48.1697C95.9894 49.3345 96.4902 50.5103 97.216 51.4798C97.5972 51.9892 99.0707 52.2626 99.7402 52.5454C100.21 52.7439 100.978 52.9509 101.423 53.2181C102.272 53.7306 103.096 54.3407 103.892 54.9017C104.289 55.1845 105.514 55.7993 105.575 56.3064ZM80.4972 34.9322C80.0863 34.9243 79.7949 34.9775 79.4871 35.0447V35.1001H79.5433C79.7394 35.504 80.0855 35.7634 80.3285 36.1103L80.8902 37.2884L80.9457 37.2329C81.2933 36.9884 81.4519 36.597 81.4503 35.9986C81.3105 35.8517 81.2902 35.6681 81.1699 35.4939C81.0105 35.2595 80.6996 35.1282 80.4972 34.9322Z" fill="#00618A" />
</svg>