<svg width="120" height="120" viewBox="0 0 120 120" fill="none" xmlns="http://www.w3.org/2000/svg">
  <circle cx="60" cy="60" r="60" fill="white" />
  <path d="M60 68.9063C64.9188 68.9063 68.9063 64.9188 68.9063 60C68.9063 55.0812 64.9188 51.0938 60 51.0938C55.0812 51.0938 51.0938 55.0812 51.0938 60C51.0938 64.9188 55.0812 68.9063 60 68.9063Z" fill="#61DAFB" />
  <path d="M93.8281 45.3125C92.1094 44.6875 90.3125 44.0625 88.4375 43.5156C88.9062 41.6406 89.2969 39.7656 89.6094 37.9688C91.25 27.6562 89.4531 20.3906 84.4531 17.5781C82.9688 16.7187 81.3281 16.3281 79.4531 16.3281C73.9844 16.3281 67.0312 20.3906 60 27.1875C52.9688 20.3906 46.0156 16.3281 40.5469 16.3281C38.6719 16.3281 37.0312 16.7187 35.5469 17.5781C30.5469 20.4687 28.75 27.7344 30.3906 37.9688C30.7031 39.7656 31.0938 41.6406 31.5625 43.5156C29.6875 44.0625 27.8906 44.6094 26.1719 45.3125C16.4063 49.0625 11.0938 54.2188 11.0938 60C11.0938 65.7812 16.4844 70.9375 26.1719 74.6875C27.8906 75.3125 29.6875 75.9375 31.5625 76.4844C31.0938 78.3594 30.7031 80.2344 30.3906 82.0312C28.75 92.3438 30.5469 99.6094 35.5469 102.422C37.0312 103.281 38.6719 103.672 40.5469 103.672C46.0937 103.672 53.0469 99.6094 60 92.8125C67.0312 99.6094 73.9844 103.672 79.4531 103.672C81.3281 103.672 82.9688 103.281 84.4531 102.422C89.4531 99.5312 91.25 92.2656 89.6094 82.0312C89.2969 80.2344 88.9062 78.3594 88.4375 76.4844C90.3125 75.9375 92.1094 75.3906 93.8281 74.6875C103.594 70.9375 108.906 65.7812 108.906 60C108.906 54.2188 103.594 49.0625 93.8281 45.3125ZM82.2656 21.4844C85.4688 23.3594 86.5625 29.1406 85.2344 37.3438C85 38.9844 84.6094 40.7031 84.1406 42.5C80.0781 41.5625 75.7812 40.9375 71.25 40.5469C68.5938 36.7969 65.8594 33.4375 63.125 30.3906C68.9062 24.6875 74.7656 20.7812 79.5312 20.7812C80.5469 20.7812 81.4844 21.0156 82.2656 21.4844ZM73.5156 67.8125C72.1094 70.3125 70.4687 72.8125 68.75 75.3125C65.8594 75.5469 62.9688 75.625 60 75.625C56.9531 75.625 54.0625 75.5469 51.25 75.3125C49.5312 72.8125 47.9688 70.3125 46.5625 67.8125C45.0781 65.2344 43.6719 62.5781 42.4219 60C43.6719 57.4219 45.0781 54.7656 46.5625 52.1875C47.9688 49.6875 49.6094 47.1875 51.3281 44.6875C54.2188 44.4531 57.1094 44.375 60.0781 44.375C63.125 44.375 66.0156 44.4531 68.8281 44.6875C70.5469 47.1875 72.1094 49.6875 73.5156 52.1875C75 54.7656 76.4062 57.4219 77.6562 60C76.3281 62.5781 75 65.1562 73.5156 67.8125ZM80 65.2344C81.1719 67.9688 82.1094 70.625 82.9688 73.2812C80.3125 73.9062 77.5 74.375 74.5312 74.7656C75.4688 73.2813 76.4844 71.7188 77.3438 70.0781C78.2812 68.4375 79.1406 66.7969 80 65.2344ZM60 86.4062C58.125 84.375 56.3281 82.1875 54.6094 79.9219C56.4062 80 58.2031 80.0781 60 80.0781C61.7969 80.0781 63.5938 80 65.3906 79.9219C63.6719 82.1875 61.875 84.375 60 86.4062ZM45.4688 74.6875C42.5 74.2969 39.6875 73.8281 37.0312 73.2031C37.8906 70.625 38.8281 67.8906 40 65.1562C40.8594 66.7188 41.7187 68.3594 42.6562 69.9219C43.5938 71.6406 44.5312 73.125 45.4688 74.6875ZM40 54.7656C38.8281 52.0312 37.8906 49.375 37.0312 46.7188C39.6875 46.0938 42.5 45.625 45.4688 45.2344C44.5312 46.7188 43.5156 48.2812 42.6562 49.9219C41.7187 51.5625 40.8594 53.2031 40 54.7656ZM60 33.5938C61.875 35.625 63.6719 37.8125 65.3906 40.0781C63.5938 40 61.7969 39.9219 60 39.9219C58.2031 39.9219 56.4062 40 54.6094 40.0781C56.3281 37.8125 58.125 35.625 60 33.5938ZM77.3438 50L74.5312 45.3125C77.5 45.7031 80.3125 46.1719 82.9688 46.7969C82.1094 49.375 81.1719 52.1094 80 54.8438C79.1406 53.2031 78.2812 51.5625 77.3438 50ZM34.7656 37.3438C33.4375 29.1406 34.5312 23.3594 37.7344 21.4844C38.5156 21.0156 39.4531 20.7812 40.4687 20.7812C45.1562 20.7812 51.0156 24.6094 56.875 30.3906C54.1406 33.3594 51.4062 36.7969 48.75 40.5469C44.2187 40.9375 39.9219 41.6406 35.8594 42.5C35.3906 40.7031 35.0781 38.9844 34.7656 37.3438ZM15.4688 60C15.4688 56.3281 19.9219 52.4219 27.7344 49.5312C29.2969 48.9062 31.0156 48.3594 32.7344 47.8906C33.9844 51.7969 35.5469 55.9375 37.4219 60.0781C35.5469 64.2188 33.9062 68.2812 32.7344 72.1875C21.9531 69.0625 15.4688 64.375 15.4688 60ZM37.7344 98.5156C34.5312 96.6406 33.4375 90.8594 34.7656 82.6562C35 81.0156 35.3906 79.2969 35.8594 77.5C39.9219 78.4375 44.2187 79.0625 48.75 79.4531C51.4062 83.2031 54.1406 86.5625 56.875 89.6094C51.0938 95.3125 45.2344 99.2188 40.4687 99.2188C39.4531 99.2188 38.5156 98.9844 37.7344 98.5156ZM85.2344 82.6562C86.5625 90.8594 85.4688 96.6406 82.2656 98.5156C81.4844 98.9844 80.5469 99.2188 79.5312 99.2188C74.8438 99.2188 68.9844 95.3906 63.125 89.6094C65.8594 86.6406 68.5938 83.2031 71.25 79.4531C75.7812 79.0625 80.0781 78.3594 84.1406 77.5C84.6094 79.2969 84.9219 81.0156 85.2344 82.6562ZM92.2656 70.4688C90.7031 71.0938 88.9844 71.6406 87.2656 72.1094C86.0156 68.2031 84.4531 64.0625 82.5781 59.9219C84.4531 55.7813 86.0938 51.7188 87.2656 47.8125C98.0469 50.9375 104.531 55.625 104.531 60C104.531 63.6719 100 67.5781 92.2656 70.4688Z" fill="#61DAFB" />
</svg>
  