<svg width="120" height="120" viewBox="0 0 120 120" fill="none" xmlns="http://www.w3.org/2000/svg">
  <circle cx="60" cy="60" r="60" fill="white" />
  <circle cx="60" cy="60" r="45" fill="#007ACC" />
  <path d="M76.1009 43.2962C77.861 43.7057 79.4604 44.6273 80.6973 45.9448C81.3784 46.6576 81.9699 47.451 82.4586 48.3073C82.4823 48.4018 79.285 50.5464 77.3478 51.7487C77.2769 51.7959 76.9986 51.4862 76.6836 51.0242C76.3305 50.4141 75.8284 49.9035 75.2242 49.5404C74.62 49.1772 73.9336 48.9734 73.2291 48.9478C71.0005 48.7955 69.5541 49.9637 69.5778 51.9114C69.5588 52.3898 69.6675 52.8645 69.8927 53.2869C70.3836 54.3028 71.2919 54.9092 74.1505 56.1455C79.4005 58.4083 81.6633 59.9019 83.0755 62.0255C83.8616 63.3667 84.3451 64.8634 84.492 66.411C84.6389 67.9586 84.4457 69.5196 83.926 70.9847C83.2132 72.5934 82.0825 73.9819 80.6514 75.0058C79.2204 76.0297 77.5412 76.6516 75.7885 76.8069C73.927 77.0205 72.0461 77.0011 70.1894 76.7492C67.3446 76.2821 64.724 74.9171 62.7108 72.8537C61.9507 71.9972 61.3072 71.0439 60.7971 70.0187C61.0121 69.8588 61.2384 69.715 61.4744 69.5882C61.7999 69.4018 63.0494 68.6904 64.2044 68.0132L66.3044 66.7873L66.7454 67.4357C67.4929 68.5045 68.4448 69.4146 69.5462 70.1132C70.6547 70.7209 71.9103 71.0089 73.1728 70.9449C74.4354 70.881 75.6554 70.4676 76.6968 69.7509C77.2307 69.2275 77.5641 68.5333 77.6389 67.7894C77.7137 67.0454 77.5252 66.2988 77.1063 65.6795C76.534 64.8632 75.3685 64.1754 72.0558 62.7395C69.4578 61.8601 67.0923 60.4045 65.1362 58.4818C64.2033 57.4188 63.5143 56.1644 63.1176 54.8068C62.8241 53.2601 62.7807 51.6764 62.989 50.1159C63.3783 48.3205 64.3101 46.6883 65.6582 45.4402C67.0062 44.1922 68.7054 43.3887 70.5254 43.1387C72.3812 42.9109 74.2608 42.964 76.1009 43.2962ZM58.8468 46.3648L58.8704 49.3757H49.3049V76.5602H42.5376V49.3757H32.9695V46.4252C32.9435 45.4129 32.9707 44.4 33.0509 43.3907C33.085 43.3434 38.9073 43.3198 45.9659 43.3329L58.81 43.367L58.8468 46.3648Z" fill="white" />
</svg>