<svg width="120" height="120" viewBox="0 0 120 120" fill="none" xmlns="http://www.w3.org/2000/svg">
  <circle cx="60" cy="60" r="60" />
  <circle cx="60" cy="60" r="45" fill="#F7DF1E" />
  <path d="M66.0089 66.5C67.4926 68.9792 69.5697 70.7292 72.9822 70.7292C75.9496 70.7292 77.8783 69.2708 77.8783 67.2292C77.8783 64.8958 75.9496 64.0208 72.6855 62.5625L70.905 61.8333C65.7122 59.6458 62.2997 57.0208 62.2997 51.3333C62.2997 46.0833 66.3056 42 72.6855 42C77.2849 42 80.549 43.6042 82.7745 47.6875L77.2849 51.1875C76.0979 49 74.7626 48.125 72.6855 48.125C70.6083 48.125 69.273 49.4375 69.273 51.1875C69.273 53.2292 70.6083 54.1042 73.724 55.4167L75.5045 56.1458C81.5875 58.7708 85 61.25 85 67.2292C85 73.5 79.9555 77 73.1306 77C66.454 77 62.1513 73.9375 60.0742 69.8542L66.0089 66.5ZM40.7864 67.0833C41.9733 68.9792 42.8635 70.7292 45.3858 70.7292C47.7596 70.7292 49.2433 69.8542 49.2433 66.3542V42.1458H56.365V66.0625C56.365 73.3542 52.0623 76.5625 45.6825 76.5625C39.8961 76.5625 36.632 73.6458 35 70.1458L40.7864 67.0833Z" fill="black" />
</svg>