<svg width="73" height="73" viewBox="0 0 73 73" fill="none" xmlns="http://www.w3.org/2000/svg">
<path d="M27.8819 48.0055L27.7609 47.9984C23.5091 47.3289 20.1261 46.6737 17.4376 45.6375C14.0867 44.3448 12.2956 42.5928 11.9608 40.2746C11.6261 37.9564 12.5947 35.9195 14.9307 34.05C16.8963 32.4725 19.6098 31.1514 22.4835 29.7555C25.7881 28.1531 29.2066 26.4936 31.7705 24.3072C33.1237 23.1535 34.1065 21.9712 34.7724 20.6928C35.5131 19.272 35.8514 17.7621 35.798 16.0814C35.3992 10.715 31.1082 7.94809 31.0619 7.9196C30.9003 7.80272 30.7894 7.62861 30.7517 7.43277C30.7141 7.23694 30.7525 7.03411 30.8592 6.86564C30.966 6.69717 31.1329 6.57574 31.3261 6.5261C31.5192 6.47645 31.724 6.50234 31.8987 6.59848C31.9486 6.63053 33.1842 7.42106 34.4698 8.96297C36.1719 11.007 37.1725 13.4355 37.3577 15.9816C37.3571 15.9925 37.3583 16.0033 37.3613 16.0137C37.4788 19.6708 35.9796 22.7724 32.7854 25.4966C30.0684 27.8112 26.5608 29.5134 23.1672 31.1621C20.3754 32.5188 17.7367 33.8008 15.9064 35.2679C14.977 36.0121 14.3324 36.7457 13.9336 37.5042C13.5348 38.2627 13.3745 39.1387 13.5063 40.0503C13.638 40.9619 14.0654 41.6955 14.831 42.3863C15.5966 43.0771 16.6328 43.654 17.9967 44.181C20.7101 45.2244 24.41 45.8903 28.003 46.4529C28.2006 46.4794 28.3805 46.5806 28.5058 46.7356C28.6311 46.8906 28.6923 47.0877 28.6768 47.2865C28.6613 47.4852 28.5703 47.6704 28.4225 47.8042C28.2746 47.9379 28.0812 48.0099 27.8819 48.0055Z" fill="#4D4C78"/>
<path d="M30.5919 68.2105C30.4146 68.2108 30.2425 68.1508 30.1039 68.0402C29.9654 67.9296 29.8686 67.7751 29.8296 67.6021C29.7907 67.4292 29.8118 67.2481 29.8895 67.0888C29.9672 66.9294 30.0969 66.8013 30.2572 66.7256C31.5249 66.1273 32.8389 65.5326 34.1137 64.9629C37.6854 63.3533 41.0576 61.8364 43.5076 60.1591C44.7753 59.2938 45.6655 58.4712 46.2317 57.6451C46.7979 56.8189 47.0294 55.975 46.9047 55.1132C46.748 54.0271 46.1142 53.1048 44.9711 52.2965C43.8886 51.5309 42.3716 50.8757 40.3276 50.2988C40.1283 50.2426 39.9595 50.1095 39.8584 49.9289C39.7572 49.7483 39.7319 49.5348 39.7881 49.3355C39.8443 49.1363 39.9774 48.9675 40.158 48.8663C40.3387 48.7651 40.5521 48.7399 40.7514 48.7961C42.9699 49.4228 44.6435 50.1492 45.8756 51.0217C47.3641 52.0757 48.233 53.3755 48.4502 54.8889C48.6318 56.1388 48.3184 57.3638 47.5172 58.5318C46.8406 59.5146 45.8186 60.4689 44.3907 61.4482C41.8268 63.2038 38.3904 64.7492 34.7547 66.3873C33.487 66.957 32.1801 67.5446 30.9231 68.1357C30.82 68.1861 30.7066 68.2117 30.5919 68.2105Z" fill="#4D4C78"/>
<path d="M46.3898 37.3297L54.7901 32.8785C62.2397 20.351 61.1429 8.34337 60.9186 4.78952C49.9009 17.5058 45.4354 16.1241 37.2309 25.4717L35.5929 32.4583L33.5881 30.1437C22.866 45.52 30.547 63.1432 30.547 63.1432C32.8545 53.874 44.4953 46.3532 49.7691 39.7797C50.4813 38.9678 51.1508 38.1511 51.7775 37.3297H46.3898Z" fill="#C8C2E9"/>
<path d="M37.1442 34.1498L38.7858 27.1631C46.8371 17.9901 50.3803 16.8648 60.9172 4.81089V4.78952C49.8996 17.5058 45.4341 16.1241 37.2296 25.4717L35.6094 32.3764L37.1442 34.1498Z" fill="#DFDAFD"/>
<path d="M35.1015 31.8921L33.5881 30.1436C22.866 45.5199 30.547 63.1432 30.547 63.1432C30.6741 62.6324 30.8274 62.1284 31.0064 61.6334C29.3612 55.8646 27.2068 43.273 35.1015 31.8921Z" fill="#DFDAFD"/>
<path d="M47.4541 39.7797C42.8141 45.5662 33.2387 52.0864 29.4355 59.8849C30.0195 61.9396 30.5466 63.1432 30.5466 63.1432C32.8541 53.874 44.4949 46.3532 49.7687 39.7797C50.4809 38.9678 51.1504 38.1511 51.7771 37.3297H49.4625C48.8357 38.1487 48.1663 38.9654 47.4541 39.7797Z" fill="#B9B1E0"/>
<path d="M60.918 4.78952C60.163 5.6584 59.439 6.46437 58.7458 7.20742C58.9594 12.3281 58.6959 22.4235 52.4785 32.8785L44.0781 37.3297H46.3892L54.7895 32.8785C62.2391 20.351 61.1423 8.34337 60.918 4.78952Z" fill="#B9B1E0"/>
<path d="M47.511 25.7458C43.0491 29.3887 39.3884 33.8542 36.6322 39.0176C34.4316 43.1412 32.8006 47.7171 31.7822 52.6134C31.0843 56.0068 30.6899 59.4556 30.6035 62.9189C30.9988 61.4304 31.6326 59.9846 32.441 58.5852C32.6357 56.6866 32.9269 54.7993 33.3134 52.9303C34.2998 48.18 35.8809 43.7466 38.0103 39.7547C40.6668 34.7729 44.1958 30.4677 48.4974 26.9566C48.658 26.8258 48.76 26.6366 48.781 26.4305C48.8021 26.2245 48.7404 26.0186 48.6096 25.858C48.4788 25.6975 48.2896 25.5955 48.0835 25.5744C47.8775 25.5534 47.6716 25.615 47.511 25.7458Z" fill="#B9B1E0"/>
<path d="M30.5888 68.2105C30.3963 68.2099 30.2107 68.1384 30.0675 68.0097C29.9243 67.8809 29.8336 67.704 29.8126 67.5126C29.8054 67.4485 29.6416 65.846 29.6879 63.2038C29.7566 59.6447 30.1536 56.0996 30.8737 52.6134C31.8886 47.7171 33.5195 43.1412 35.7202 39.0176C38.4764 33.8542 42.1371 29.3887 46.599 25.7459C46.6775 25.6733 46.77 25.6176 46.8708 25.5821C46.9716 25.5466 47.0787 25.5321 47.1853 25.5396C47.2919 25.547 47.3959 25.5762 47.4909 25.6253C47.5858 25.6744 47.6697 25.7424 47.7373 25.8252C47.805 25.9079 47.855 26.0037 47.8843 26.1065C47.9136 26.2093 47.9215 26.317 47.9076 26.423C47.8937 26.5289 47.8583 26.631 47.8035 26.7227C47.7487 26.8145 47.6757 26.8941 47.5889 26.9566C43.2873 30.4677 39.7584 34.7729 37.0983 39.7547C34.9688 43.7466 33.3878 48.18 32.4014 52.9304C30.7242 61.028 31.3616 67.2847 31.3687 67.3488C31.3897 67.5545 31.3284 67.7602 31.1983 67.9209C31.0683 68.0817 30.8799 68.1845 30.6743 68.2069L30.5888 68.2105Z" fill="#4D4C78"/>
</svg>
